<svg width="80" height="71" viewBox="0 0 80 71" fill="none" xmlns="http://www.w3.org/2000/svg">
<ellipse cx="40" cy="35.5" rx="40" ry="35.5" fill="#D8DCFF"/>
<path d="M23 16C21.3431 16 20 17.3431 20 19V45C20 46.6568 21.3431 48 23 48H34V41.367C34 39.8424 34.6328 38.3864 35.7472 37.3462L44 29.6436V29C44 27.3431 42.6568 26 41 26H38V19C38 17.3431 36.6568 16 35 16H23ZM28 23.5C28 24.3284 27.3284 25 26.5 25C25.6716 25 25 24.3284 25 23.5C25 22.6716 25.6716 22 26.5 22C27.3284 22 28 22.6716 28 23.5ZM26.5 31C25.6716 31 25 30.3284 25 29.5C25 28.6716 25.6716 28 26.5 28C27.3284 28 28 28.6716 28 29.5C28 30.3284 27.3284 31 26.5 31ZM28 35.5C28 36.3284 27.3284 37 26.5 37C25.6716 37 25 36.3284 25 35.5C25 34.6716 25.6716 34 26.5 34C27.3284 34 28 34.6716 28 35.5ZM31.5 25C30.6716 25 30 24.3284 30 23.5C30 22.6716 30.6716 22 31.5 22C32.3284 22 33 22.6716 33 23.5C33 24.3284 32.3284 25 31.5 25ZM33 29.5C33 30.3284 32.3284 31 31.5 31C30.6716 31 30 30.3284 30 29.5C30 28.6716 30.6716 28 31.5 28C32.3284 28 33 28.6716 33 29.5ZM31.5 37C30.6716 37 30 36.3284 30 35.5C30 34.6716 30.6716 34 31.5 34C32.3284 34 33 34.6716 33 35.5C33 36.3284 32.3284 37 31.5 37ZM50.3882 30.8771C49.0434 29.622 46.9566 29.622 45.6118 30.8771L37.1118 38.8104C36.4026 39.4724 36 40.399 36 41.3692V53C36 54.6568 37.3432 56 39 56H43C44.6568 56 46 54.6568 46 53V48.0008H50V53C50 54.6568 51.3432 56 53 56H57C58.6568 56 60 54.6568 60 53V41.3692C60 40.399 59.5974 39.4724 58.8882 38.8104L50.3882 30.8771ZM47.6588 33.0702C47.851 32.891 48.149 32.891 48.3412 33.0702L56.8412 41.0036C56.9424 41.0982 57 41.2306 57 41.3692V53H53V48.0008C53 46.344 51.6568 45.0008 50 45.0008H46C44.3432 45.0008 43 46.344 43 48.0008V53H39V41.3692C39 41.2306 39.0576 41.0982 39.1588 41.0036L47.6588 33.0702Z" fill="#5E6EFF"/>
</svg>
