<svg width="80" height="71" viewBox="0 0 80 71" fill="none" xmlns="http://www.w3.org/2000/svg">
<ellipse cx="40" cy="35.5" rx="40" ry="35.5" fill="#FFD7D7"/>
<path d="M38 21.2997V24.3529C38 25.5225 38.8954 26.4706 40 26.4706C41.1046 26.4706 42 25.5225 42 24.3529V21.2997C49.7904 22.2664 55.9706 28.8102 56.8836 37.0588H54C52.8954 37.0588 52 38.0069 52 39.1764C52 40.346 52.8954 41.2941 54 41.2941H56.8782C56.4326 45.142 54.7916 48.5963 52.3992 51.3328C51.8364 51.9765 51.873 52.9813 52.481 53.5772C53.089 54.1731 54.038 54.1344 54.6008 53.4906C57.8852 49.7337 60 44.7513 60 39.1764C60 27.481 51.0456 18 40 18C28.9543 18 20 27.481 20 39.1764C20 44.7513 22.1147 49.7337 25.3992 53.4906C25.962 54.1344 26.911 54.1731 27.519 53.5772C28.1269 52.9813 28.1635 51.9765 27.6008 51.3328C25.2084 48.5963 23.5673 45.142 23.1218 41.2941H26C27.1046 41.2941 28 40.346 28 39.1764C28 38.0069 27.1046 37.0588 26 37.0588H23.1164C23.491 33.6743 24.7524 30.5768 26.6479 28.0338L28.5858 30.0856C29.3668 30.9126 30.6332 30.9126 31.4142 30.0856C32.1953 29.2586 32.1953 27.9178 31.4142 27.0908L29.4764 25.039C31.8781 23.0319 34.8035 21.6964 38 21.2997ZM49.5178 27.8133C49.0414 27.4229 48.3648 27.4364 47.9032 27.8457L47.4688 28.2318C47.192 28.4779 46.7958 28.8307 46.3176 29.2576C45.3616 30.1112 44.0772 31.2617 42.7652 32.4484C41.454 33.6342 40.111 34.8597 39.0394 35.8621C38.5042 36.3627 38.0314 36.8127 37.662 37.1765C37.3186 37.5149 36.9972 37.8438 36.8224 38.0725C35.5165 39.7827 35.796 42.2656 37.4468 43.6186C39.0976 44.9714 41.4944 44.6819 42.8004 42.9719C42.9752 42.743 43.2102 42.3434 43.449 41.9194C43.7058 41.4633 44.0198 40.883 44.367 40.2283C45.0622 38.9174 45.9046 37.2818 46.717 35.687C47.5298 34.0913 48.3152 32.5318 48.8972 31.3716C49.1882 30.7914 49.4284 30.3108 49.596 29.9752L49.8588 29.4483C50.137 28.889 49.9942 28.2038 49.5178 27.8133Z" fill="#F71D1D"/>
</svg>
