<svg width="80" height="71" viewBox="0 0 80 71" fill="none" xmlns="http://www.w3.org/2000/svg">
<ellipse cx="40" cy="35.5" rx="40" ry="35.5" fill="#EDDFFF"/>
<path d="M52.7279 45.7542L50.2741 48.104C48.4657 49.8227 46.119 52.0326 43.2335 54.7339C41.4303 56.4222 38.5697 56.422 36.7668 54.7335L29.5499 47.9359C28.6429 47.0735 27.8837 46.3463 27.2721 45.7542C20.2426 38.9476 20.2426 27.9117 27.2721 21.105C34.3015 14.2983 45.6985 14.2983 52.7279 21.105C59.7574 27.9117 59.7574 38.9476 52.7279 45.7542ZM45.1685 33.9795C45.1685 31.2154 42.8544 28.9747 40 28.9747C37.1455 28.9747 34.8315 31.2154 34.8315 33.9795C34.8315 36.7435 37.1455 38.9842 40 38.9842C42.8544 38.9842 45.1685 36.7435 45.1685 33.9795Z" fill="#9747FF"/>
</svg>
